<svg xmlns="http://www.w3.org/2000/svg" width="256" height="256"><path fill="#1976D2" fill-opacity=".016" fill-rule="evenodd" d="M0 128.004v128.004l128.25-.254 128.25-.254.254-127.75L257.008 0H0zm.485.496c0 70.4.119 99.053.265 63.672s.146-92.98 0-128S.485 58.1.485 128.5"/><path fill="#1976D2" fill-opacity=".243" fill-rule="evenodd" d="M108.5 1.575c-27.195 4.174-50.884 16.44-71.036 36.784C13.334 62.719 1.546 89.595.286 123.122-.375 140.71 1.359 153.199 6.657 169 17.212 200.479 39.23 226.034 69 241.358c18.497 9.521 33.29 13.439 54.105 14.329 62.339 2.667 117.534-40.729 130.374-102.502.837-4.024 1.521-8.663 1.521-10.309 0-1.742.418-2.735 1-2.376.65.402.975-4.389.93-13.691-.044-8.925-.394-13.557-.93-12.309-.719 1.674-.871 1.469-.93-1.261-.215-9.981-6.689-30.794-13.826-44.443C216.108 20.715 162.073-6.647 108.5 1.575m-1.578 2.977C57.628 13.478 18.601 49.908 6.334 98.444c-3.399 13.448-4.267 34.812-1.996 49.126 5.009 31.569 22.486 60.886 47.518 79.712 11.807 8.88 22.631 14.598 36.271 19.161 66.713 22.316 138.052-14.139 159.302-81.406 7.825-24.771 7.132-55.64-1.78-79.254-6.538-17.325-15.13-31.026-27.705-44.18-18.852-19.719-42.467-32.304-69.489-37.03-10.899-1.907-31.065-1.917-41.533-.021m-6.315 35.03c-.334.87-.607 8.764-.607 17.543v15.961l-15.75-.088c-8.662-.049-16.763-.068-18-.043-2.188.044-2.25.336-2.25 10.545V94h59V38h-10.893c-9.011 0-10.998.273-11.5 1.582m29.415 16.635c.024 20.382.727 23.379 6.943 29.594 7.094 7.095 9.311 7.653 31.785 8.013l20.25.323V73.138l-15.898-.319c-21.127-.424-19.965.674-20.327-19.201L152.5 38.5l-11.25-.283-11.25-.283zM64.216 111.75l.284 10.75 16.67.5c9.169.275 17.044.873 17.5 1.33.457.456 1.055 8.106 1.33 17l.5 16.17 11.75.282 11.75.281-.01-18.281c-.009-17.143-.157-18.593-2.377-23.282-2.865-6.049-7.572-10.69-13.613-13.421-4.032-1.823-6.557-2.037-24.284-2.057L63.932 101zM130 129.532v28.531l11.75-.281 11.75-.282.274-17.25.273-17.25H189v-22h-59zM.397 128c0 7.975.156 11.238.346 7.25s.189-10.513 0-14.5c-.19-3.987-.346-.725-.346 7.25M78 178c0 2.2.178 4 .395 4s.567-1.8.776-4 .032-4-.395-4-.776 1.8-.776 4m33.471-1.329c-.872.873-1.335 2.241-1.029 3.04s.558 1.641.558 1.871 1.125.418 2.5.418 2.5-.4 2.5-.889-.787-.826-1.75-.75c-.963.077-1.75-.536-1.75-1.361s.787-1.437 1.75-1.361c2.126.169 2.319-1.207.279-1.99-.809-.31-2.185.15-3.058 1.022m-58.833.829c-.94 2.452.411 4.5 2.969 4.5 1.316 0 2.393-.4 2.393-.889s-.788-.826-1.75-.75c-.962.077-1.75-.536-1.75-1.361s.788-1.437 1.75-1.361 1.75-.261 1.75-.75c0-1.517-4.753-.975-5.362.611m13.512 1.25c-.128 2.779.176 3.233 2.1 3.134 1.596-.082 1.759-.246.56-.562-.929-.245-1.874-1.655-2.1-3.134-.37-2.427-.425-2.372-.56.562M87 179c0 1.65.45 3 1 3s1.014-.787 1.03-1.75c.029-1.667.079-1.667 1.05 0 1.557 2.673 2.92 2.089 2.92-1.25 0-1.65-.45-3-1-3s-1 .54-1 1.2c0 .933-.267.933-1.2 0-1.945-1.945-2.8-1.396-2.8 1.8m14 0c0 1.65.45 3 1 3s1-1.35 1-3-.45-3-1-3-1 1.35-1 3m23.161-.453c-.639 1.401-1.161 2.661-1.161 2.8s1.54.253 3.422.253h3.423l-1.448-2.8c-1.793-3.466-2.747-3.523-4.236-.253M136 179c0 .65 14 1 40 1s40-.35 40-1-14-1-40-1-40 .35-40 1m-84 17.927V208h9.021c8.653 0 9.068-.102 10.161-2.5 1.009-2.214 1.752-2.5 6.5-2.5s5.491.286 6.5 2.5c.977 2.144 4.818 3.653 4.818 1.892 0-.334-2.108-5.304-4.685-11.045-5.978-13.316-6.899-13.359-12.586-.597L67.608 205H56.075l-.287-9.239c-.245-7.868-.548-9.288-2.038-9.573-1.581-.302-1.75.732-1.75 10.739M99 197c0 10.333.121 11 2 11 1.704 0 2-.667 2-4.5V199h5c3.778 0 5-.367 5-1.5s-1.222-1.5-5-1.5c-4.889 0-5-.067-5-3 0-2.97.056-3 5.5-3 4.833 0 5.5-.242 5.5-2 0-1.822-.667-2-7.5-2H99zm18.151-1.911c.312 8.123.6 9.292 2.71 11 3.53 2.857 10.163 2.579 13.103-.55 2.007-2.137 2.327-3.553 2.424-10.735.097-7.135-.129-8.319-1.638-8.611-1.542-.299-1.75.558-1.75 7.234 0 6.24-.352 7.925-2 9.573-2.491 2.491-5.189 2.554-7.345.171-1.237-1.367-1.655-3.765-1.655-9.5 0-7.126-.149-7.671-2.099-7.671-2.005 0-2.084.412-1.75 9.089M140 196.958V208h8c6.444 0 8-.292 8-1.5 0-1.167-1.333-1.5-6-1.5h-6v-3c0-2.933.111-3 5-3 4.333 0 5-.267 5-2s-.667-2-5-2c-4.64 0-5-.177-5-2.45 0-2.281.396-2.471 5.75-2.75 4.311-.225 5.75-.675 5.75-1.8 0-1.179-1.658-1.562-7.75-1.792l-7.75-.292zm19.794-9.708c-.231.688-.386 5.52-.345 10.739.064 8.083.325 9.536 1.768 9.814 1.445.279 1.736-.743 1.988-6.988l.295-7.315 5.863 7.25c3.224 3.988 6.487 7.25 7.25 7.25 1.099 0 1.387-2.286 1.387-11 0-8.959-.27-11-1.455-11-1.838 0-2.932 5.505-2.173 10.932.313 2.237.419 4.068.236 4.068s-2.976-3.375-6.207-7.5c-5.735-7.322-7.754-8.788-8.607-6.25M180.5 187c-1.103 1.785.541 3 4.059 3H188v9c0 6.97.31 9 1.375 9 1.685 0 2.625-4.342 2.625-12.125 0-5.861.007-5.875 3-5.875 2.333 0 3-.444 3-2 0-1.842-.667-2-8.441-2-4.643 0-8.719.45-9.059 1m20.289-.25c-.313.712-.282 10.943.055 18.042l.156 3.292 7.67-.292c5.027-.191 7.812-.723 8.083-1.542.3-.906-1.216-1.25-5.503-1.25-3.254 0-6.152-.236-6.44-.524-.288-.287-.315-1.615-.06-2.949.401-2.095 1.096-2.467 5.098-2.727 3.472-.225 4.717-.739 4.966-2.05.285-1.497-.473-1.75-5.241-1.75-5.278 0-5.573-.132-5.573-2.5 0-2.389.267-2.5 6-2.5 5.333 0 6-.222 6-2 0-1.821-.667-2-7.441-2-4.093 0-7.589.338-7.77.75m-124.833 8c-.795 2.063-1.561 3.975-1.701 4.25s1.32.5 3.245.5 3.5-.283 3.5-.628c0-.852-2.954-7.872-3.313-7.872-.157 0-.936 1.688-1.731 3.75"/><path fill="#1976D2" fill-opacity=".342" fill-rule="evenodd" d="M117.833 1.066C87.687 3.237 60.196 15.954 37.993 38-1.246 76.963-10.89 136.613 14.111 185.719c22.117 43.44 65.299 69.705 114.389 69.575 54.175-.143 101.383-33.646 119.858-85.06 3.077-8.565 6.642-25.309 6.642-31.2 0-2.513.395-3.908 1-3.534.644.398.958-2.878.882-9.191-.081-6.666-.363-8.848-.882-6.809-.727 2.857-.769 2.803-.882-1.119-.528-18.39-9.071-42.608-21.747-61.649C212.968 26.085 175.546 3.69 141 1.454c-4.675-.302-9.625-.67-11-.817s-6.85.046-12.167.429m-3.017 1.954C56.786 9.617 11.893 53.517 3.37 112c-5.474 37.559 8.983 78.878 37.003 105.757 24.58 23.577 53.575 35.408 87.127 35.549 32.877.139 62.658-11.559 86.478-33.967 35.879-33.752 48.598-85.196 32.639-132.013-14.062-41.25-50.887-73.705-93.307-82.237-11.855-2.384-28.061-3.255-38.494-2.069m45.84 78.657c-.158.159-5.31.435-11.447.614-6.138.18-11.483.649-11.878 1.044s.693 2.008 2.418 3.583 3.387 2.613 3.693 2.306.558-.076.558.512c0 2.369 6.864 3.264 25.04 3.264h18.741l.417-3.572c.23-1.965-.071-4.239-.667-5.055-1.42-1.942-7.015-3.057-12.031-2.398-2.2.289-6.375.275-9.278-.031-2.902-.305-5.407-.426-5.566-.267M66.289 83.69c-.318.828-.626 3.15-.684 5.158L65.5 92.5l28.751.265 28.751.266-.219-5.016c-.159-3.667-.63-5.054-1.75-5.161-.843-.08-13.375-.264-27.85-.408-22.682-.226-26.396-.054-26.894 1.244M65 111.396V122h15.389c21.059 0 20.012-.994 20.431 19.409l.321 15.591H124v-16.385c0-23.315-2.774-30.343-14.351-36.36-4.976-2.586-5.812-2.689-24.899-3.07L65 100.791zM130 129v28h22.953l.273-17.25.274-17.25 17.75-.273 17.75-.273V101h-59zM.365 127.5c.003 5.5.171 7.622.373 4.716.203-2.905.201-7.405-.004-10S.363 122 .365 127.5m52.997 50c-.939 2.446.413 4.51 2.857 4.364l2.281-.136-2.25-.434C54.878 181.03 54 180.135 54 179s.878-2.03 2.25-2.294l2.25-.434-2.281-.136c-1.255-.075-2.541.539-2.857 1.364m12.788 1.25c-.128 2.779.176 3.233 2.1 3.134 1.596-.082 1.759-.246.56-.562-.929-.245-1.874-1.655-2.1-3.134-.37-2.427-.425-2.372-.56.562m12.082.25c0 1.925.206 2.713.457 1.75.252-.963.252-2.537 0-3.5-.251-.963-.457-.175-.457 1.75m9.831.05c.06 3.242.122 3.304 1.031 1.03.64-1.602.619-2.767-.064-3.45-.707-.707-1.01.052-.967 2.42M92 177.417c0 .779-.499 1.583-1.11 1.786-.694.232-.507.87.5 1.706 1.421 1.179 1.61.97 1.61-1.787 0-1.717-.225-3.122-.5-3.122s-.5.637-.5 1.417m9.232 1.583c0 1.925.206 2.713.457 1.75.252-.963.252-2.537 0-3.5-.251-.963-.457-.175-.457 1.75m10.13-1.5c-.866 2.257.348 4.515 2.357 4.384 1.669-.109 1.671-.145.031-.573-2.569-.672-2.198-4.086.5-4.605l2.25-.434-2.281-.136c-1.255-.075-2.541.539-2.857 1.364m13.109 1.635c-.942 1.866-1.135 2.829-.432 2.162.91-.864 1.815-.91 3.209-.164 1.726.924 1.863.78 1.234-1.297-1.212-4.004-2.251-4.186-4.011-.701M52 197.5V208h7c5.556 0 7-.31 7-1.5 0-1.152-1.278-1.5-5.5-1.5H55v-9c0-7.333-.278-9-1.5-9-1.238 0-1.5 1.833-1.5 10.5m21.388-4.75C68.999 202.506 67 207.148 67 207.583c0 .229.65.417 1.445.417s2.037-1.238 2.759-2.75c1.148-2.405 1.964-2.788 6.503-3.05 4.9-.284 5.277-.131 6.767 2.75.868 1.677 2.278 3.05 3.135 3.05s1.408-.385 1.224-.855c-.183-.471-2.311-5.196-4.729-10.5-5.379-11.802-6.909-12.358-10.716-3.895M99 197.5c0 8.667.262 10.5 1.5 10.5 1.111 0 1.5-1.167 1.5-4.5V199h5.583c7.382 0 6.984-2.371-.471-2.804-5.227-.304-5.23-.307-4.921-3.5.304-3.148.396-3.201 6.059-3.496 8.423-.439 7.022-2.2-1.75-2.2H99zm18.156-2.403c.336 7.403.607 8.302 3.162 10.5 3.77 3.243 8.954 3.221 12.227-.052 2.2-2.199 2.455-3.291 2.455-10.5 0-6.484-.291-8.045-1.5-8.045-1.197 0-1.5 1.483-1.5 7.345 0 8.106-1.466 10.655-6.129 10.655-4.022 0-4.871-1.777-4.871-10.2 0-7.264-.145-7.8-2.106-7.8-1.998 0-2.087.415-1.738 8.097m23.059 2.153.285 10.25 7.75.292c6.442.243 7.75.032 7.75-1.25 0-1.218-1.261-1.542-6-1.542h-6v-7h5c2.75 0 5-.45 5-1s-2.25-1-5-1h-5v-7h5.5c3.025 0 5.5-.45 5.5-1 0-.578-3.178-1-7.535-1h-7.535zm19.785.25c0 8.532.273 10.5 1.458 10.5 1.125 0 1.525-1.748 1.75-7.651l.292-7.65 5.987 7.65c3.293 4.208 6.555 7.651 7.25 7.651.937 0 1.263-2.709 1.263-10.5 0-8.526-.274-10.5-1.456-10.5-1.114 0-1.525 1.704-1.75 7.25l-.294 7.25-5.863-7.25c-3.224-3.988-6.487-7.25-7.25-7.25-1.095 0-1.387 2.212-1.387 10.5m21-9.5c0 .55 1.575 1 3.5 1h3.5v9.5c0 7.669.282 9.5 1.462 9.5 1.158 0 1.523-1.931 1.75-9.25l.288-9.25 3.25-.313c6.657-.642 2.949-2.187-5.25-2.187-5 0-8.5.412-8.5 1m20 9.5V208h7.5c6 0 7.5-.3 7.5-1.5 0-1.167-1.333-1.5-6-1.5h-6v-7h5.5c3.025 0 5.5-.45 5.5-1s-2.475-1-5.5-1H204v-7h6c3.333 0 6-.444 6-1 0-.578-3.167-1-7.5-1H201zm-125.391-2.48c-.885 2.211-1.609 4.236-1.609 4.5s1.838.48 4.083.48 3.931-.338 3.745-.75-.989-2.437-1.784-4.5c-.795-2.062-1.757-3.75-2.136-3.75s-1.415 1.809-2.299 4.02"/><path fill="#1976D2" fill-opacity=".344" fill-rule="evenodd" d="M99.551 107.918c-.33.534-7.442.96-16.224.971-9.166.012-16.054.438-16.647 1.031-.555.555-1.216 3.5-1.469 6.545L64.752 122h32.103l2.072 2.635c1.886 2.397 2.073 3.975 2.073 17.5V157h23l-.006-13.75c-.011-27.602-2.885-33.432-17.002-34.494-2.48-.186-5.036-.665-5.681-1.064-.645-.398-1.437-.297-1.76.226m31.098 5.162c-.357 3.417-.649 14.697-.649 25.067V157h23v-34.954l17.75-.273 17.75-.273-.358-5.469c-.228-3.474-.929-5.886-1.924-6.614-1.101-.804-9.314-1.078-27.642-.922-15.171.13-26.327-.164-26.677-.703-.33-.509-.892 1.87-1.25 5.288m-19.091 63.827c-.309.498.34.671 1.441.383 2.335-.611 2.63-1.29.56-1.29-.793 0-1.693.408-2.001.907m-45.479 1.676c.048 1.165.285 1.402.604.605.289-.722.253-1.585-.079-1.917s-.568.258-.525 1.312m-12.311 2.585c.582.582 1.647.86 2.369.62.749-.25.295-.703-1.057-1.057-1.663-.435-2.054-.305-1.312.437M52 197v10h7c4 0 7-.429 7-1 0-.55-2.475-1-5.5-1H55v-9c0-7.333-.278-9-1.5-9-1.233 0-1.5 1.778-1.5 10m20.131-.75c-2.289 5.088-4.154 9.588-4.146 10 .034 1.72 2.142.566 3.197-1.75 1.025-2.25 1.721-2.5 6.959-2.5 5.375 0 5.869.192 6.448 2.5.345 1.375 1.292 2.5 2.103 2.5s1.325-.407 1.141-.904c-3.152-8.553-8.63-19.071-9.937-19.082-1.061-.009-3.011 3.114-5.765 9.236m27.736-7.5c-.885 11.683-.636 18.25.693 18.25 1.013 0 1.44-1.185 1.44-4v-4h5c2.75 0 5-.45 5-1s-2.25-1-5-1h-5v-8h6c3.333 0 6-.444 6-1 0-.571-3-1-7-1-5.949 0-7.02.263-7.133 1.75M118 194.777c0 5.211.483 8.468 1.464 9.868 3.049 4.353 12.209 3.563 14.398-1.242.626-1.373 1.138-5.626 1.138-9.45 0-5.514-.31-6.953-1.5-6.953-1.205 0-1.5 1.533-1.5 7.8 0 8.75-.802 10.2-5.643 10.2-4.71 0-6.357-2.908-6.357-11.223 0-3.851-.432-6.777-1-6.777-.581 0-1 3.259-1 7.777M141 197v10h7c4 0 7-.429 7-1 0-.556-2.667-1-6-1h-6v-7h5.5c3.025 0 5.5-.45 5.5-1s-2.475-1-5.5-1H143v-7h6c3.333 0 6-.444 6-1 0-.571-3-1-7-1h-7zm19 0c0 8.089.278 10 1.456 10 1.112 0 1.526-1.694 1.75-7.174l.294-7.175 5.863 7.175c3.225 3.946 6.488 7.174 7.25 7.174 1.09 0 1.387-2.141 1.387-10 0-8.094-.278-10-1.458-10-1.125 0-1.525 1.748-1.75 7.651l-.292 7.65-5.987-7.65c-3.293-4.208-6.555-7.651-7.25-7.651-.933 0-1.263 2.611-1.263 10m21-9c0 .55 1.575 1 3.5 1h3.5v9c0 7.333.278 9 1.5 9s1.5-1.667 1.5-9v-9h3.5c1.925 0 3.5-.45 3.5-1 0-.588-3.5-1-8.5-1s-8.5.412-8.5 1m20 9v10h7.5c4.333 0 7.5-.422 7.5-1 0-.556-2.667-1-6-1h-6v-7h5c2.75 0 5-.45 5-1s-2.25-1-5-1h-5v-7h6c3.333 0 6-.444 6-1 0-.578-3.167-1-7.5-1H201zm-125.716-2-2.112 5h4.481c4.187 0 4.436-.148 3.788-2.25-.762-2.469-3.329-7.75-3.768-7.75-.152 0-1.227 2.25-2.389 5"/></svg>