<svg xmlns="http://www.w3.org/2000/svg" width="256" height="256"><path fill="#1976D2" fill-opacity=".016" fill-rule="evenodd" d="M0 128.004v128.004l128.25-.254 128.25-.254.254-127.75L257.008 0H0zm.485.496c0 70.4.119 99.053.265 63.672s.146-92.98 0-128S.485 58.1.485 128.5"/><path fill="#1976D2" fill-opacity=".295" fill-rule="evenodd" d="M127.964 2.413c-2.304 2.222-13.308 6.477-20.866 8.066-7.475 1.573-24.045 2.29-25.934 1.122-.643-.397-8.48-.923-17.416-1.169-12.275-.338-17.573-.09-21.666 1.014-8.816 2.378-8.931 2.903-2.708 12.362 8.33 12.661 12.25 24.619 13.264 40.457.609 9.505-.494 15.346-6.178 32.735-6.323 19.34-8.445 29.14-8.453 39.04-.009 10.466 1.927 18.247 6.77 27.213 3.407 6.309 13.447 17.614 17.811 20.056 1.009.565 3.877 2.592 6.374 4.504S76.2 192.509 79.5 194c17.501 7.907 39.892 19.446 44.597 22.981 5.969 4.485 6.438 4.626 8.498 2.567 4.17-4.17 20.272-13.611 33.604-19.703 19.52-8.921 31.687-16.15 39.958-23.742 5.432-4.986 7.543-7.895 11.47-15.807l4.812-9.696.391-12.55c.339-10.886.051-13.957-2.167-23.16-1.406-5.836-4.12-14.387-6.031-19.002-6.274-15.158-8.592-30.351-6.637-43.507 1.279-8.61 6.898-21.745 13.36-31.231 2.005-2.943 3.645-5.556 3.645-5.807 0-.25-2.083-1.377-4.628-2.503-5.903-2.611-17.588-3.411-27.372-1.875-17.973 2.822-39.142 1.754-50-2.524-4.642-1.828-10.247-5.272-10.833-6.655-.523-1.232-2.596-.923-4.203.627M129.158 15c0 1.375.227 1.938.504 1.25.278-.687.278-1.812 0-2.5-.277-.687-.504-.125-.504 1.25m.283 35c0 15.675.138 22.087.307 14.25.169-7.838.169-20.663 0-28.5-.169-7.838-.307-1.425-.307 14.25m-60.84-19.599c.295.771 1.412 1.631 2.482 1.91 2.521.66 4.676 5.93 5.869 14.352.985 6.955 7.52 21.328 10.087 22.183.862.288 1.061-.144.609-1.321-.492-1.281-.275-1.596.814-1.178.817.314 1.888-.15 2.38-1.029.591-1.056 1.363-1.305 2.276-.733.76.476 2.169.736 3.132.577 1.356-.223 1.75.419 1.75 2.852v3.14l2.765-2.827c4.712-4.817 6.043-7.747 7.327-16.134.682-4.458 1.615-7.874 2.072-7.591 1.089.673 5.769-4.665 5.788-6.602.008-.825-.922-.038-2.067 1.75-2.637 4.117-5.203 4.418-4.264.5.866-3.612 3.39-8.572 4.034-7.929.279.279-.01 1.559-.641 2.843-1.105 2.248-1.071 2.241.897-.164 1.82-2.226 2.845-6 1.628-6-1.089 0-4.885 4.758-6.155 7.714-.76 1.768-1.843 6.47-2.407 10.449-.988 6.965-2.952 10.837-5.496 10.837-1.856 0-6.88-7.858-6.933-10.846-.039-2.139-.583-2.716-2.804-2.971-1.904-.219-2.964.226-3.43 1.44-.388 1.012-.174 1.924.506 2.15 1.86.62 1.379 4.704-.893 7.592-4.178 5.312-7.398 2.173-9.39-9.155-1.634-9.293-3.392-13.23-6.951-15.562-3.074-2.014-3.683-2.064-2.985-.247m.261 12.099c.571 1.1 2.21 3.35 3.641 5s2.135 2.1 1.563 1-2.21-3.35-3.641-5-2.135-2.1-1.563-1M72 41.378c0 .207.787.995 1.75 1.75 1.586 1.243 1.621 1.208.378-.378C72.821 41.084 72 40.555 72 41.378m42.564 3.329c-.542 1.425-.428 1.54.56.56.684-.679.991-1.486.683-1.793-.308-.308-.867.247-1.243 1.233M115 49c-.589 1.1-.845 2-.57 2s.981-.9 1.57-2 .845-2 .57-2-.981.9-1.57 2m-46-.622c0 .207.787.995 1.75 1.75 1.586 1.243 1.621 1.208.378-.378C69.821 48.084 69 47.555 69 48.378m1 4.563c0 .518.445 1.216.989 1.552.566.35.734-.051.393-.941C70.717 51.82 70 51.503 70 52.941m40.573.58c-1.06.802-1.695 1.691-1.411 1.975s1.334-.386 2.332-1.49c2.127-2.349 1.783-2.53-.921-.485M71 57.378c0 .207.787.995 1.75 1.75 1.586 1.243 1.621 1.208.378-.378C71.821 57.084 71 56.555 71 57.378M112.5 63c-.34.55-.141 1 .441 1S114 63.55 114 63s-.198-1-.441-1-.719.45-1.059 1M78 72c.825.533 2.175.945 3 .914.989-.036.819-.347-.5-.914-2.749-1.181-4.328-1.181-2.5 0m27.872 8.75c-1.243 1.586-1.208 1.621.378.378 1.666-1.307 2.195-2.128 1.372-2.128-.207 0-.995.787-1.75 1.75m19.715 19.141c-3.024 3.79-7.093 7.877-9.043 9.082-4.166 2.574-4.713 4.422-.877 2.963 1.986-.754 2.869-.686 3.458.267.631 1.02 1.045 1.027 2.033.039 1.729-1.729 2.842-1.549 2.842.458 0 1.322.267 1.433 1.2.5 1.761-1.761 3.85-1.494 3.124.399-.54 1.407-.341 1.437 1.662.25 1.792-1.063 2.371-1.084 2.728-.099.632 1.746 2.286 1.565 2.286-.25 0-1.956 1.895-1.938 2.648.026.452 1.176.902 1.262 1.969.377 1.046-.868 1.748-.845 2.883.097 1.229 1.02 1.5.951 1.5-.378 0-.892.66-1.622 1.466-1.622 1.063 0 .391-1.993-2.448-7.25-7.683-14.233-9.539-14.75-17.431-4.859M16.539 120.592c-.379 2.525-.948 4.332-1.266 4.015-.317-.317-1.224.654-2.017 2.158-2.553 4.848-.847 12.542 4.487 20.235 1.587 2.289 1.591 2.387.039 1.164-2.05-1.616-3.782-.749-3.782 1.895 0 1.466.695 1.941 2.839 1.941 2.059 0 3.153.688 3.979 2.5 1.202 2.638.389 3.307-1.601 1.317-2.068-2.068-2.356-.205-.634 4.1 1.984 4.958 1.492 5.833-1.996 3.548-3.03-1.985-3.254-1.079-1.175 4.745.955 2.675 1.013 3.844.207 4.187-1.935.824 9.121 10.464 12.789 11.152 3.784.71 10.128 4.248 9.229 5.147-.324.324-1.297.001-2.163-.718-1.305-1.083-1.829-1.052-3.061.18-.831.832-1.203 2.226-.843 3.164.703 1.833 3.941 2.278 4.93.678.959-1.552 3.054-1.188 5.639.98 1.988 1.666 2.128 2.132.887 2.947-1.253.823-1.141 1.321.75 3.335 2.574 2.74 2.884 4.205.713 3.372-2.164-.83-7.489.408-7.489 1.743 0 .619 2.025 2.201 4.5 3.514 5.036 2.671 5.735 4.109 2 4.109-3.548 0-3.136 2.494.672 4.071l3.172 1.314-2.722.908c-3.677 1.225-2.917 2.667 2.947 5.591 7.805 3.892 13.039 3.954 19.1.225 5.886-3.622 8.566-4.132 5.831-1.109-1.747 1.93-1.747 2.07 0 4 .995 1.1 2.208 2 2.695 2 1.269 0 6.805 4.221 6.805 5.188 0 .447-.494.812-1.099.812-1.677 0-7.901 3.128-7.901 3.971 0 .409 2.721 1.028 6.046 1.376s6.896 1.087 7.934 1.642c1.039.556 3.043 1.011 4.454 1.011 2.804 0 3.456 1.445 1.066 2.362-2.084.799-1.873 2.368.49 3.633 1.494.799 2.553.7 4.25-.399 2.2-1.425 15.844-3.494 14.673-2.225-.323.35-3.248 1.104-6.5 1.676-8.422 1.48-11.413 2.838-11.413 5.181 0 1.489.438 1.812 1.75 1.293.962-.381 4.225-1.142 7.25-1.691s8.425-1.862 12-2.918c4.375-1.291 7.777-1.703 10.405-1.259 2.833.478 3.71.342 3.191-.497-.393-.636-.237-1.156.345-1.156s1.059.49 1.059 1.088c0 .711 1.356.859 3.92.426 2.379-.402 6.21-.076 9.75.83 5.692 1.457 17.873 3.656 20.254 3.656.657 0 .949-.397.649-.882-.3-.486.406-2.093 1.569-3.572 2.243-2.851 1.706-4.386-1.761-5.039a70 70 0 0 1-2.381-.479c-1.153-.29 11.936-4.841 15.796-5.494 3.823-.645 5.96-2.498 2.954-2.56-1.301-.027 2.579-2.197 17.744-9.924 6.047-3.081 9.4-5.428 10.232-7.163.68-1.42 4.851-6.119 9.269-10.444 4.417-4.324 7.873-8.33 7.679-8.903-.193-.572 1.28-3.29 3.276-6.04 6.731-9.278 10.544-15.917 11.756-20.47 1.497-5.623 1.577-7.323.309-6.539-1.034.639-.893-.536 1.578-13.199 1.654-8.471 1.764-11.292.443-11.292-.532 0-1.092-4.33-1.25-9.669-.196-6.633-.678-9.799-1.536-10.083-.922-.306-1.25 1.466-1.25 6.762 0 6.218-.255 7.244-1.906 7.676-1.264.33-2.118 1.73-2.537 4.156-1.911 11.081-2.791 14.158-4.048 14.158-.743 0-1.647 1.463-2.01 3.25s-1.565 6.175-2.671 9.75c-4.828 15.609-4.57 15.187-17.638 28.866-4.201 4.398-5.497 5.255-6.206 4.108-.733-1.186-1.499-.877-4.19 1.686-1.812 1.726-6.579 5.244-10.594 7.82-5.881 3.772-7.58 4.45-8.738 3.488-1.134-.941-1.558-.882-2.003.278-.66 1.721-14.38 12.166-15.072 11.475-.257-.258.494-2.101 1.671-4.095 2.724-4.617 1.349-4.651-2.97-.072-3.628 3.846-12.305 9.745-16.113 10.954-1.301.413-4.465 2.042-7.031 3.621S131.766 238 131.139 238s-1.139.675-1.139 1.5-.48 1.5-1.067 1.5c-.629 0-.794-.862-.402-2.099.562-1.769.348-1.997-1.366-1.454-3.148 1-15.075-5.495-18.665-10.164-3.726-4.844-9.803-10.219-14.807-13.095-4.503-2.588-5.097-2.682-4.331-.688.755 1.967-.259 1.903-2.539-.161-2.026-1.833-3.898-1.014-2.006.878.651.651 1.183 1.784 1.183 2.518 0 1.044-.456 1.092-2.086.219-2.661-1.424-3.687-.422-2.126 2.078 1.441 2.307 1.515 2.968.333 2.968-.483 0-1.417-1.301-2.076-2.891-.95-2.293-.927-3.325.109-4.984 1.11-1.778 1.054-2.346-.373-3.773-1.411-1.411-1.937-1.468-3.275-.357-1.362 1.131-1.831.973-3.214-1.086-4.243-6.311-20.318-18.216-22.139-16.396-.269.27.112 1.614.847 2.987 2.369 4.427.441 3.659-4.844-1.929-5.427-5.738-6.112-7.532-3.656-9.571 2.069-1.717 1.88-4.727-.374-5.933-1.45-.776-2.289-.545-3.706 1.021-1.549 1.712-1.635 2.339-.556 4.065.701 1.123 1.024 2.292.718 2.598-1.208 1.208-3.336-6.606-3.474-12.751-.203-9.139-6.278-20.723-7.281-13.886-.612 4.174-2.62 3.076-4.227-2.311-1.566-5.249-1.558-5.324.778-7.303 2.475-2.096 2.478-4.5.006-4.5-.796 0-1.855 1.012-2.353 2.25-1.497 3.724-1.213-.452.469-6.911.825-3.168 1.5-7.72 1.5-10.116 0-3.903-.209-4.291-2-3.723-1.465.465-2 .18-2-1.067 0-2.569-2.215-9.433-3.045-9.433-.4 0-1.038 2.066-1.416 4.592m175.565 1.943c-1.707 1.944-3.104 3.744-3.104 4s2.412.465 5.361.465h5.361l-1.068-4c-.587-2.2-1.603-4-2.257-4s-2.586 1.591-4.293 3.535m3.493.309c-.346.56-.142 1.319.453 1.687 1.538.95 2.53-.351 1.246-1.635-.718-.718-1.277-.735-1.699-.052M183 132.835c0 .425 1.631 2.323 3.625 4.219 2.806 2.666 3.356 2.924 2.435 1.14-.655-1.269-1.834-2.554-2.62-2.855s-1.209-.904-.94-1.339-.184-1.048-1.006-1.364c-.822-.315-1.494-.226-1.494.199m6 .165-2.5.801 2.346.099c1.29.055 3.649 1.028 5.243 2.163 2.993 2.132 4.911 1.888 4.911-.622 0-.793.563-1.473 1.25-1.511.688-.039.35-.457-.75-.93-2.473-1.063-7.182-1.063-10.5 0m-61.905.941c-.87.538-.275.952 1.804 1.257 3.553.522 3.849.272 1.297-1.093-.992-.531-2.388-.605-3.101-.164m-19.492.892c-.283.459.795.834 2.397.834s2.68-.375 2.397-.834S111.035 134 110 134s-2.114.375-2.397.833m10.21-.15c.721.289 1.584.253 1.916-.079s-.258-.568-1.312-.525c-1.165.048-1.402.285-.604.604m-46 13c.721.289 1.584.253 1.916-.079s-.258-.568-1.312-.525c-1.165.048-1.402.285-.604.604m28 4c.721.289 1.584.253 1.916-.079s-.258-.568-1.312-.525c-1.165.048-1.402.285-.604.604M55 157.059c0 .582.45.781 1 .441s1-.816 1-1.059-.45-.441-1-.441-1 .477-1 1.059m6 .441c0 .825.45 1.5 1 1.5s1-.675 1-1.5-.45-1.5-1-1.5-1 .675-1 1.5m29-.5c0 .55.477 1 1.059 1s.781-.45.441-1-.816-1-1.059-1-.441.45-.441 1m19.455 79.927c.315.51 2.254 1.474 4.309 2.142 2.055.669 4.624 1.827 5.709 2.573 2.606 1.794 4.084 1.734 2.558-.104-.667-.804-3.664-2.379-6.66-3.5-6.16-2.305-6.719-2.41-5.916-1.111m29.36 1.975c-7.403 4.695-6.635 5.572 1.324 1.512 8.957-4.568 8.757-4.414 5.723-4.414-1.359 0-4.53 1.306-7.047 2.902M128.158 244c0 1.375.227 1.938.504 1.25.278-.687.278-1.812 0-2.5-.277-.687-.504-.125-.504 1.25M145 245.417c0 .457 8.822 2.559 13.329 3.175 1.556.213 3.301.68 3.879 1.037.599.37.853.052.59-.74-.59-1.774-17.798-5.131-17.798-3.472"/><path fill="#1976D2" fill-opacity=".57" fill-rule="evenodd" d="M122.5 13.603c-11.473 6.892-24.131 8.326-51.737 5.861-11.145-.995-21.534-1.489-23.087-1.099l-2.825.71 2.153 3.213c3.808 5.681 9.785 19.025 11.491 25.652 1.883 7.312 2.436 22.771 1.12 31.287l-.885 5.726 34.885.02 34.885.019-.246-36.744c-.135-20.21-.585-36.813-1-36.897s-2.554.93-4.754 2.252m7.569 33.976c.128 26.142.502 36.703 1.31 37.013.622.239 16.929.316 36.237.171l35.106-.263-1.362-5c-1.486-5.458-1.987-23.829-.836-30.643 1.337-7.912 8.016-23.236 12.242-28.086 1.348-1.548 1.33-1.797-.172-2.373-.923-.355-5.597-.362-10.386-.016-4.789.345-16.808.907-26.708 1.247-20.125.693-25.727-.16-37.187-5.66-3.403-1.633-6.69-2.969-7.305-2.969-.807 0-1.068 10.179-.939 36.579M67.911 28.693c-.188 1.71.188 11.092.691 17.211.582 7.085 2.218 12.694 6.229 21.365 2.24 4.842 3.222 5.922 6.113 6.723 4.123 1.142 4.711.806 2.485-1.421-.917-.916-1.352-1.981-.967-2.367s1.576.501 2.646 1.97a130 130 0 0 0 3.86 4.998l1.914 2.328-.407-3.354c-.223-1.845-.677-4.207-1.008-5.25-1.166-3.673 1.055-1.823 2.839 2.364 1.799 4.226 1.81 4.232 3.107 1.855.891-1.632 1.535-2.008 2.04-1.19.536.866 1.147.697 2.225-.615 1.414-1.723 1.452-1.713.79.19-.382 1.1-.903 2.9-1.157 4-.418 1.806-.262 1.772 1.613-.361 1.142-1.298 2.076-3.184 2.076-4.191s.498-2.138 1.107-2.514c.745-.461.887.011.433 1.441-.562 1.771-.268 2.125 1.77 2.125 3.037 0 6-2.964 3.062-3.063-1.641-.056-1.607-.171.276-.93 2.907-1.173 3.949-2.946 4.717-8.025.126-.834.658-2.184 1.182-3C116.654 57.26 117.02 28 115.935 28c-.4 0-2.105 1.569-3.789 3.487-3.261 3.714-4.616 7.665-5.664 16.519-.742 6.267-2.517 9.327-5.121 8.825-2.523-.486-6.525-6.738-5.792-9.048 1.28-4.033-3.865-6.344-7.045-3.164-1.475 1.474-1.478 1.774-.043 3.36 2.495 2.757-.402 8.958-4.208 9.006-2.218.027-4.228-4.472-5.66-12.671-.775-4.44-2.11-9.144-2.968-10.452-1.673-2.554-7.587-6.505-7.734-5.169m78.761 5.465c-2.697 2.024-3.464 3.323-5.146 8.717-.509 1.633-.394 2.161.367 1.691.609-.376 1.107-1.557 1.107-2.625S143.45 40 144 40s1.014-.788 1.031-1.75c.018-.962 1.164-2.575 2.548-3.583 2.125-1.547 2.768-1.625 4.131-.5 1.367 1.128 1.539 1.103 1.12-.167-.748-2.264-3.009-2.206-6.158.158m17.995 1.509c-.367.366-.667 2.991-.667 5.833 0 6.176-.596 6.988-3.67 5.004-7.829-5.053-7.94-5.108-6.44-3.216.764.965 3.576 2.982 6.249 4.483s4.747 3.015 4.61 3.365c-.137.349-5.087 4.554-10.999 9.343S143 69.403 143 69.669c0 .525 16.74-12.23 29.375-22.382 4.332-3.48 8.603-6.735 9.492-7.232.889-.498 1.304-1.217.922-1.599-.381-.382-3.302 1.38-6.491 3.914l-5.798 4.609-.314-4.125c-.173-2.269.165-4.605.75-5.19 1.329-1.329 1.375-2.664.093-2.664-.535 0-1.343 1.432-1.796 3.182s-1.366 3.362-2.028 3.583c-1.779.593-2.701-2.742-1.354-4.897 1.103-1.767.248-2.634-1.184-1.201M165 46.5c0 3.679 2.233 4.941 3.393 1.918C169.618 45.226 169.046 43 167 43c-1.619 0-2 .667-2 3.5m-90.5.5c.34.55.816 1 1.059 1s.441-.45.441-1-.477-1-1.059-1-.781.45-.441 1m36.372 4.75c-1.243 1.586-1.208 1.621.378.378 1.666-1.307 2.195-2.128 1.372-2.128-.207 0-.995.788-1.75 1.75m.565 3.5L108.5 58.5l3.25-2.937c1.787-1.615 3.25-3.078 3.25-3.25 0-.773-.825-.092-3.563 2.937m64.636 2.471c4.085 2.596 7.577 5.071 7.76 5.5.451 1.053 2.167.993 2.167-.076C186 62.118 171.436 53 169.796 53c-.632 0 2.192 2.124 6.277 4.721m-8.031-1.221c-.674 2.425-.465 7.322.281 6.577.452-.453.637-2.342.41-4.2-.227-1.857-.538-2.927-.691-2.377m-56.17 2.25c-1.243 1.586-1.208 1.621.378.378 1.666-1.307 2.195-2.128 1.372-2.128-.207 0-.995.788-1.75 1.75M163 60.167c0 3.641.437 3.509 1.378-.417.392-1.633.246-2.75-.359-2.75-.56 0-1.019 1.425-1.019 3.167m.459 4.9c-.363.586-.419 1.306-.126 1.6.717.716 2.667-.546 2.667-1.726 0-1.278-1.726-1.193-2.541.126M108.5 67c-1.63.701-1.688.872-.309.93.93.038 1.969-.38 2.309-.93.711-1.15.676-1.15-2 0m-5.25 10.989c-1.787 1.09-3.25 2.508-3.25 3.151 0 .716.709.528 1.829-.485 2.478-2.243 3.471-2.085 2.171.345-1.415 2.645.995 2.768 3.345.171 2.116-2.338 2.109-3.282-.019-2.466-1.268.487-1.518.237-1.031-1.031.795-2.072.886-2.081-3.045.315m-22.958.462c-.971 1.105-.696 1.709 1.405 3.086 2.268 1.486 2.533 1.504 2.009.138-.447-1.163-.161-1.412 1.095-.955 1.472.536 1.444.329-.206-1.55-2.204-2.511-2.661-2.587-4.303-.719M55.67 94.25c-8.573 23.919-11.346 45.923-7.279 57.75 2.544 7.398 9.194 17.381 15.738 23.627 4.981 4.754 17.655 12.857 25.871 16.541 1.925.863 8.731 3.907 15.125 6.764s14.656 6.967 18.361 9.132 6.913 3.936 7.13 3.936 5.966-3.123 12.777-6.94 16.796-9.002 22.189-11.522c12.201-5.702 22.737-11.552 22.047-12.242-.287-.287-5.46 2.004-11.495 5.091S164.195 192 163.015 192c-2.073 0-5.987-1.635-7.015-2.929-.275-.347-4.057-1.967-8.404-3.601-4.673-1.756-8.351-3.788-9-4.97-.603-1.1-1.517-2.303-2.032-2.674-.566-.408-.503-1.196.161-2 2.3-2.782 2.588-8.627.596-12.06-2.839-4.89-2.042-6.28 4.474-7.794 3.138-.73 7.505-1.966 9.705-2.746 2.2-.781 6.475-1.985 9.5-2.676s6.319-1.608 7.32-2.038c1.641-.703 1.753-.396 1.134 3.104-1.076 6.083-1.922 6.522-10.489 5.442-4.843-.611-7.813-.596-8.457.042-.655.65-.643 1.223.036 1.692.859.593 1.407 5.262 1.815 15.458.06 1.51 1.131 1.75 7.792 1.75h7.723l-.536-3.305c-.424-2.611.031-3.98 2.162-6.513 2.065-2.454 2.734-4.375 2.849-8.182.093-3.065.655-5.169 1.463-5.48 1.046-.403.996-.956-.25-2.735-2.117-3.023-1.997-3.44 1.188-4.133 6.14-1.335 6.064-2.15-.794-8.544l-6.456-6.019 6.75-.045c3.713-.024 6.75.317 6.75.759 0 .441 2.588.493 5.75.115s11.105-.442 17.65-.142l11.9.544-.657-5.41c-.361-2.975-3.199-13.173-6.307-22.66L203.686 87H58.268zm75.685-1.186c-1.18.437-3.379 2.513-4.887 4.615-1.508 2.101-5.493 6.446-8.855 9.655l-6.113 5.833 3.75-.629c2.408-.403 3.75-.242 3.75.452 0 .77.574.773 2 .01 1.596-.854 2-.76 2 .465 0 1.997.889 1.939 3.304-.215 1.893-1.689 1.937-1.671 1.262.5-.812 2.607.588 2.975 2.509.66 1.198-1.444 1.445-1.421 2.68.25 1.308 1.77 1.4 1.771 2.383.035.792-1.398 1.334-1.548 2.399-.664.756.627 1.865.839 2.463.469s1.743-.128 2.544.536c1.179.979 1.456.88 1.456-.525 0-1.462.588-1.623 3.75-1.031l3.75.703-2.553-2.009c-1.403-1.105-4.481-5.592-6.838-9.971-4.44-8.249-7.084-10.496-10.754-9.139M17.624 119.539c-.343.893-.624 2.69-.624 3.993s-.751 2.789-1.669 3.303c-1.557.871-1.556 1.171.019 4.491 1.773 3.735 3.952 13.453 2.694 12.011-.402-.46-1.588-3.537-2.637-6.837-1.759-5.537-1.93-5.749-2.22-2.752C12.873 136.999 17.38 147 19.159 147c.463 0 .841.675.841 1.5 0 1.808-1.167 1.933-2.8.3-.881-.881-1.496-.904-2.313-.087-1.611 1.611-.062 3.477 2.271 2.737 2.276-.722 4.749 1.864 4.828 5.05.028 1.1 1.392 3.98 3.032 6.4 2.915 4.302 3.975 7.832 1.982 6.6-.55-.34-1-1.019-1-1.509 0-1.103-5.94-9.991-6.678-9.991-.295 0-.231.787.143 1.75 1.153 2.974 1.569 8.25.651 8.25-.48 0-1.553-1.012-2.385-2.25-2.123-3.159-3.158-1.575-1.753 2.683.968 2.933 1.663 3.567 3.912 3.567 1.734 0 3.788 1.098 5.61 3 3.245 3.387 2.62 3.918-1.346 1.142-1.46-1.022-3.99-2.103-5.622-2.403-2.921-.536-2.895-.475 1.649 3.818 3.106 2.935 6.15 4.749 9.295 5.541 3.614.91 6.079 2.584 10.85 7.364 7.351 7.367 12.424 10.002 5.674 2.949-2.475-2.587-5.791-5.898-7.369-7.358-2.549-2.359-2.922-3.487-3.336-10.104C34.856 168.94 31.559 158 29.886 158c-.411 0-.891.977-1.066 2.172-.503 3.414-2.427 3.219-3.784-.384-.681-1.809-1.696-4.258-2.255-5.443s-.731-2.616-.383-3.181a1.204 1.204 0 0 0-.382-1.654c-1.436-.888-1.264-5.097.573-13.981 1.672-8.085 1.354-10.157-1.068-6.956-.801 1.06-1.512 1.702-1.579 1.427s-.347-2.975-.622-6c-.561-6.167-.8-6.796-1.696-4.461m174.222 2.627c-2.115 2.292-3.846 4.473-3.846 4.846s2.813.602 6.25.507c4.876-.136 6.16-.487 5.84-1.596-.226-.783-.612-2.886-.859-4.673-.612-4.424-2.693-4.165-7.385.916m48.285 3.334c-.156 1.65-.465 5.475-.687 8.5s-.839 7.525-1.372 10l-.97 4.5.345-5.756c.189-3.165-.046-5.996-.522-6.29-.967-.598-1.258.574-2.992 12.046-1.111 7.346-2.933 12.403-2.933 8.141 0-4.043-1.787-.237-2.39 5.089-.359 3.176-1.755 8.024-3.1 10.773-1.346 2.748-2.462 5.488-2.479 6.087-.017.6-1.408 3.525-3.091 6.5s-2.778 4.398-2.433 3.16c.99-3.547-.119-2.674-3.97 3.129-1.964 2.958-5.843 7.504-8.619 10.101-5.147 4.814-5.702 6.221-1.988 5.042 3.646-1.157 8.09-5.629 10.686-10.752 1.385-2.733 2.769-4.718 3.075-4.412s-.407 2.191-1.586 4.189-1.655 3.47-1.058 3.271c1.353-.451 5.898-8.951 10.061-18.818 2.685-6.361 6.892-13.521 6.892-11.728 0 .298-1.35 3.55-3 7.228s-3 6.954-3 7.28c0 1.89 6.017-5.592 6.57-8.171 1.008-4.695 7.811-21.966 8.197-20.809.185.556-1.29 5.355-3.279 10.664-4.076 10.882-4.135 14.106-.143 7.782 1.474-2.335 2.925-4.246 3.224-4.246 1.276 0-3.507 6.599-8.929 12.318-9.05 9.548-14.231 16.698-12.758 17.609 1.592.984-9.729 7.897-19.556 11.943-3.946 1.625-9.796 4.741-13 6.924s-7.963 5.168-10.576 6.631c-2.613 1.462-4.75 3.043-4.75 3.512s-4.144 2.512-9.21 4.539c-5.065 2.027-10.422 4.55-11.904 5.605S145.462 239 144.571 239s-2.048 1.125-2.571 2.5c-.912 2.399-3 3.495-3 1.574 0-.509-1.795-.171-3.99.75-4.849 2.037-5.54 4.732-.979 3.82 1.667-.334 5.829.054 9.25.86 7.4 1.745 8.719 1.82 8.719.496 0-.55-.562-1.003-1.25-1.006-3.118-.013-8.747-2.19-8.153-3.151.791-1.28 11.707-.258 18.238 1.708 2.478.746 4.88 1.125 5.336.843 1.641-1.014.77-2.219-2.421-3.348-3.947-1.395-3.44-1.751 7.964-5.588 4.518-1.521 8.006-3.102 7.751-3.515s5.177-3.563 12.071-7.001c6.895-3.437 12.745-6.588 13-7.001.81-1.31-10.725 2.121-15.831 4.708-4.861 2.464-6.242 2.695-4.901.822 1.21-1.689 11.627-6.471 14.096-6.471 5.68 0 9.695-2.483 17.6-10.884 4.4-4.677 6.569-7.403 4.819-6.059a173 173 0 0 1-6.5 4.706c-1.825 1.244-5.782 4.056-8.792 6.25-6.477 4.719-8.875 5.241-4.277.932 1.787-1.676 3.25-3.224 3.25-3.442s-3.713 1.598-8.25 4.034c-8.043 4.318-11.501 5.487-10.251 3.464.887-1.434 17.264-9.001 19.482-9.001 1.024 0 4.935-2.071 8.691-4.602 3.755-2.531 7.84-4.995 9.078-5.475s2.25-1.406 2.25-2.057c0-.652 1.701-3.475 3.78-6.275 5.365-7.227 7.304-10.433 7.768-12.842.223-1.156.771-2.36 1.219-2.676 1.391-.98 3.003-7.731 2.194-9.188-.423-.762.149-6.496 1.271-12.742 1.443-8.034 1.719-11.555.944-12.034-.627-.388-1.237-4.72-1.428-10.143-.183-5.206-.461-8.116-.617-6.466M105.5 134.366c-7.075 2.182-11.469 4.203-11.166 5.134.307.941 6.5 1.926 18.338 2.914 2.844.237 6.148.955 7.343 1.594 1.194.639 3.297.879 4.674.534 1.395-.35 3.132-.106 3.925.553 1.119.928 1.848.797 3.405-.612 2.318-2.098 2.578-6.284.561-9.042-1.258-1.72-2.709-1.944-12.75-1.971-6.231-.016-12.68.387-14.33.896M216.158 136c0 1.375.227 1.938.504 1.25.278-.687.278-1.812 0-2.5-.277-.687-.504-.125-.504 1.25m-150.286 6.75c-1.243 1.586-1.208 1.621.378.378.963-.755 1.75-1.543 1.75-1.75 0-.823-.821-.294-2.128 1.372m8.149 2.473c-4.083 1.871-5.396 1.973-14.841 1.157-9.208-.796-12.772-.472-10.446.95 2.018 1.234 19.175 2.494 23.266 1.708 5.678-1.09 6.953-.109 6.29 4.836l-.509 3.797 5.359-.072c2.948-.039 6.185.322 7.193.804 1.614.77 1.793.472 1.5-2.514L91.5 152.5h15.21l.082 2.887c.045 1.588.485 3.29.978 3.783 1.236 1.236 4.02.014 4.567-2.005.363-1.34.592-1.225 1.174.585.746 2.323 2.489 3.113 2.489 1.128 0-.752.521-.69 1.576.185 1.046.868 1.803.96 2.25.274.958-1.471 3.992-1.253 4.6.33.991 2.582 2.574 1.293 2.574-2.096 0-3.306-.207-3.492-5.75-5.171-3.162-.958-7.1-1.845-8.75-1.972-4.283-.328-8.537-1.378-12-2.963-3.238-1.481-8.637-2.534-15-2.925-2.2-.135-4.675-.498-5.5-.808-.825-.309-3.516.362-5.979 1.491m117.589-1.458c1.713 1.133 4.545 7.175 3.873 8.262-.329.532-2.364 1.25-4.522 1.595s-3.697.997-3.418 1.448c.457.74 9.003-1.282 10.114-2.394.691-.691-2.554-7.991-3.946-8.876-1.554-.987-3.592-1.021-2.101-.035m49.469 1.818c.048 1.165.285 1.402.604.605.289-.722.253-1.585-.079-1.917s-.568.258-.525 1.312M214.5 148c-.38 1.729-.482 3.351-.227 3.606s.751-.974 1.102-2.731.454-3.38.227-3.606c-.226-.227-.722 1.002-1.102 2.731M24 147.5c0 .825.675 1.5 1.5 1.5s1.5-.675 1.5-1.5-.675-1.5-1.5-1.5-1.5.675-1.5 1.5m216.079 2.083c.048 1.165.285 1.402.604.605.289-.722.253-1.585-.079-1.917s-.568.258-.525 1.312m-4 2c.048 1.165.285 1.402.604.605.289-.722.253-1.585-.079-1.917s-.568.258-.525 1.312M211.301 157c-2.59 5.758-8.733 12.652-16.431 18.438-3.337 2.509-5.614 4.562-5.059 4.562 1.424 0 9.914-6.949 14.824-12.134 4.941-5.217 9.638-12.552 9.086-14.189-.218-.648-1.307.848-2.42 3.323m23.778-1.417c.048 1.165.285 1.402.604.605.289-.722.253-1.585-.079-1.917s-.568.258-.525 1.312M54.5 156c-.729 1.18.217 3 1.559 3 .518 0 .941-.9.941-2 0-2.109-1.455-2.691-2.5-1m127.5.059c0 .582.45.781 1 .441s1-.816 1-1.059-.45-.441-1-.441-1 .477-1 1.059M60 158c0 2.274 2.508 2.725 3.324.598.628-1.636-.11-2.598-1.991-2.598-.733 0-1.333.9-1.333 2m10.079-.417c.048 1.165.285 1.402.604.605.289-.722.253-1.585-.079-1.917s-.568.258-.525 1.312m62.921.976c0 .857.457 1.276 1.016.931.559-.346.758-1.047.441-1.559-.857-1.387-1.457-1.129-1.457.628M75 159c0 .55.45 1 1 1s1-.45 1-1-.45-1-1-1-1 .45-1 1m34.813 3.683c.721.289 1.584.253 1.916-.079s-.258-.568-1.312-.525c-1.165.048-1.402.285-.604.604m122.266.9c.048 1.165.285 1.402.604.605.289-.722.253-1.585-.079-1.917s-.568.258-.525 1.312M90 164.441c0 .857.45 1.559 1 1.559s1-.423 1-.941-.45-1.219-1-1.559-1 .084-1 .941m32-.382c0 .582.45.781 1 .441s1-.816 1-1.059-.45-.441-1-.441-1 .477-1 1.059m5 1c0 .582.45.781 1 .441s1-.816 1-1.059-.45-.441-1-.441-1 .477-1 1.059m56.662 1.003c.749.749.677 2.178-.245 4.853-1.314 3.813-.944 8.085.7 8.085.485 0 .883-1.321.883-2.935s.437-4.085.972-5.491c1.177-3.095.385-5.574-1.779-5.574-1.124 0-1.28.313-.531 1.062m-25.738 2.08c-1.805 3.372-.763 6.297 2.326 6.53 2.557.194 2.75-.061 2.75-3.615 0-2.991-.438-3.938-2.013-4.35q-2.014-.527-3.063 1.435m-3.729 3.358c.02 1.65.244 2.204.498 1.231s.237-2.323-.037-3-.481.119-.461 1.769m-88.182 4.275c.022 1.234 14.091 9.901 21.987 13.545 11.419 5.271 14.723 6.68 15.658 6.68.471 0 6.703 3.2 13.849 7.111l12.993 7.111 7.25-3.852c3.988-2.119 7.25-4.164 7.25-4.544s-1.012-1.011-2.25-1.403c-1.238-.391-3.326-1.415-4.64-2.274-6.397-4.182-36.606-16.128-40.877-16.164-.953-.008-3.758-.738-6.233-1.622s-5.85-1.767-7.5-1.962c-1.65-.194-4.8-.787-7-1.317-6.593-1.59-10.501-2.078-10.487-1.309m-25.763 2.943c-1.583.568-1.62 3.512-.064 5.068.915.915 1.601.811 3-.455.998-.902 1.814-2.005 1.814-2.451 0-1.184-3.295-2.683-4.75-2.162m189.532 5.917C219.239 198.51 218.936 199 220.918 199c.506 0 1.948-1.687 3.207-3.75s4.455-6.562 7.104-10 4.37-6.25 3.825-6.25-2.918 2.536-5.272 5.635m-197.418 4.858c-.346.903-.195 2.076.336 2.607 1.399 1.399 4.453-.068 4.088-1.964-.424-2.201-3.646-2.669-4.424-.643M52 193.487c0 .191.884 2.409 1.964 4.93 1.944 4.535 1.794 5.886-.354 3.189-1.273-1.599-10.631-5.848-10.569-4.8.022.382 1.372 2.252 3 4.156 3.409 3.989 3.805 5.561 1.025 4.073-2.529-1.353-9.391-1.37-8.557-.021.687 1.112 7.811 5.084 10.991 6.129 1.622.534 1.433.695-1 .857-1.65.11-4.105.508-5.455.884-2.331.65-2.204.836 2.5 3.644l4.955 2.96-4 .534-4 .534 5.055 2.64c9.344 4.88 13.382 4.607 21.588-1.46 2.031-1.501 3.075-1.713 4.5-.913 1.742.978 1.749 1.084.107 1.717-.963.371-1.75 1.231-1.75 1.912s.787 1.926 1.75 2.767c1.469 1.284 2.755 1.358 8.008.463 4.858-.827 6.536-.784 7.5.194.994 1.009.744 1.215-1.258 1.036-1.375-.123-4.288-.153-6.473-.068l-3.973.156 3.473 3.193 3.473 3.193-3.983.84c-2.19.462-4.363 1.22-4.827 1.684-.73.73 6.525 2.952 15.56 4.765 3.017.606 3.615 2.056 1.224 2.973-1.144.44-1.25.917-.422 1.915.832 1.002 1.76 1.075 3.775.298 4.103-1.582 16.301-3.749 17.821-3.166 2.387.916 1.453 2.183-2.398 3.252-2.062.573-4.312 1.044-5 1.047S105 249.45 105 250c0 1.542 3.868 1.172 10.94-1.044 4.9-1.536 7.113-1.785 9.25-1.04l2.81.98v-5.555c0-4.66-.256-5.457-1.585-4.947-2.739 1.051-14.179-6.283-22.248-14.262-4.245-4.198-9.216-8.473-11.047-9.501-3.327-1.866-3.329-1.866-2.658.25.859 2.707-1.028 2.798-2.462.119-1.576-2.945-3.167-2.46-1.796.548.796 1.748 1.825 2.46 3.277 2.27 1.165-.153 3.67.951 5.568 2.453l3.451 2.73-8.37-3.034c-6.446-2.336-8.227-2.681-7.75-1.5l1.227 3.033c.929 2.296-1.004 1.788-4.094-1.075l-2.778-2.575 2.042-2.762c1.357-1.836 1.747-3.236 1.161-4.175-1.237-1.984-4.462.172-4.364 2.918.1 2.802-1.17 1.824-3.208-2.472-2.294-4.835-9.848-12.37-15.616-15.577-2.612-1.453-4.75-2.485-4.75-2.295m144.733 10.602c-2.072 2.138-5.447 4.748-7.5 5.8s-5.49 3.313-7.637 5.024c-3.857 3.076-5.999 3.482-3.69.7.812-.978.857-1.641.143-2.083-.577-.356-1.049-.031-1.049.724 0 .754-1.238 2.537-2.75 3.96-2.877 2.708-15.462 10.907-15.967 10.402-.459-.459 2.739-6.511 3.78-7.155.515-.319.937-.986.937-1.483s-2.088 1.126-4.64 3.606c-4.562 4.434-9.405 7.583-12.36 8.038-3.82.587-14.969 6.983-14.984 8.596-.018 1.894-.097 1.915 8.984-2.375 3.025-1.429 7.075-3.146 9-3.815 10.338-3.592 16.639-6.261 18.46-7.819 3.946-3.376 8.474-6.209 9.923-6.209.805 0 2.736-1.067 4.29-2.37 1.555-1.304 4.951-3.715 7.548-5.358 6.525-4.128 13.167-10.294 12.135-11.265-.471-.443-2.551.944-4.623 3.082m-142.75 6.922c-.619.382 1.413.956 4.515 1.277s7.441 1.521 9.643 2.669c2.202 1.147 3.718 1.623 3.368 1.058-1.797-2.908-14.876-6.642-17.526-5.004m46.208 13.036c.93.542 3.067 2.656 4.75 4.697s3.059 3.385 3.059 2.987c0-1.263-7.183-8.732-8.366-8.701-.624.017-.373.475.557 1.017m75.525 2.804c-7.806 4.597-7.785 5.67.034 1.668 3.988-2.041 7.25-3.892 7.25-4.115 0-1.091-2.97-.093-7.284 2.447m-67.149 9.041c-.331.536.746 1.771 2.395 2.745 1.648.973 2.544 2.05 1.989 2.393s.184 1.166 1.64 1.83c2.276 1.037 2.565.99 2.058-.332-.474-1.235.211-1.13 3.466.531 3.794 1.935 4.034 1.952 3.711.255-.557-2.929-13.997-9.465-15.259-7.422M167.5 236c-1.1.473-4.025.911-6.5.975-4.152.106-12.388 2.784-9 2.925 1.443.061 14.199-2.121 22.5-3.849l4-.832-4.5-.039c-2.475-.022-5.4.347-6.5.82m-70.426 14.935c-2.599.665-4.126 3.089-1.907 3.03 2.014-.054 6.23-2.611 5.218-3.165-.487-.267-1.977-.206-3.311.135m61.886.588c4.645 1.448 5.693 1.343 4.581-.456-.362-.587-2.545-1.037-4.85-1l-4.191.067z"/><path fill="#1976D2" fill-opacity=".408" fill-rule="evenodd" d="M131 47.508c0 31.764.194 36.494 1.5 36.507 1.957.019 63.779.019 66.866 0l2.366-.015-1.461-6.25c-2.355-10.069-1.29-28.276 2.208-37.75 2.53-6.852 7.432-16.784 9.706-19.666 1.613-2.043-2.46-2.443-13.315-1.308-5.704.596-16.905 1.342-24.893 1.657-12.715.503-15.578.309-23-1.553-4.662-1.17-11.065-3.474-14.227-5.121L131 11.015zm-9.361-32.826c-9.46 4.91-16.967 6.429-31.725 6.418-7.472-.005-16.472-.468-20-1.028-8.157-1.296-22.504-1.802-23.485-.828-.413.409-.061 1.534.781 2.5C51.215 26.339 56.821 39.162 59.562 50c1.241 4.91 1.531 9.435 1.184 18.5-.252 6.6-.786 12.761-1.187 13.692-.658 1.529.481 1.721 11.858 2 6.923.169 12.586.189 12.585.044s-1.465-1.595-3.252-3.221c-2.362-2.149-2.795-2.964-1.583-2.986.916-.016 1.87-.592 2.118-1.279.299-.828 1.519-.249 3.609 1.712 1.737 1.629 2.935 3.541 2.663 4.25-.535 1.394-.088 1.475 8.85 1.592 5.307.07 5.995-.159 6.769-2.251.733-1.982.643-2.147-.609-1.108-2.264 1.878-5.48.44-4.804-2.148.45-1.719.219-2.004-1.184-1.466-.958.368-2.381.669-3.161.669s-1.432.787-1.45 1.75c-.025 1.407-.501 1.216-2.426-.97-1.565-1.778-2.574-2.298-2.911-1.5-.359.85-.851.689-1.623-.53-.609-.962-2.098-1.757-3.308-1.765-3.371-.024-4.441-1.097-7.603-7.623-4.491-9.271-6.054-15.766-6.757-28.068-.729-12.761-.198-13.57 5.669-8.633 3.803 3.2 4.724 5.418 6.561 15.792.774 4.375 2.053 8.599 2.841 9.387 3.31 3.309 8.007-2.823 5.603-7.314-1.067-1.993-1.075-2.748-.042-3.992 2.92-3.519 8.815-.63 8.205 4.021-.186 1.425.826 3.527 2.702 5.611 2.765 3.072 3.129 3.207 4.637 1.722.988-.973 2.001-4.511 2.555-8.922.504-4.021 1.859-9.256 3.011-11.634 2.022-4.177 6.488-8.716 7.786-7.914 1.181.731.65 29.464-.567 30.681-.629.629-.941 1.676-.692 2.326.435 1.133-1.049 4.927-4.252 10.865-.935 1.734-2.619 3.012-4.451 3.379-1.621.324-3.22 1.029-3.552 1.567-.366.592.234.712 1.521.304 1.194-.379 2.125-.239 2.125.319 0 .547.728 1.14 1.618 1.318 1.307.261 1.089.852-1.136 3.073L104.727 84H128V48c0-19.8-.338-35.964-.75-35.921-.412.044-2.938 1.215-5.611 2.603m24.111 19.772c-2.062 1.894-3.756 4.029-3.764 4.745-.007.716-.285 2.314-.616 3.551-.382 1.426-.16 2.25.607 2.25.666 0 1.446-.9 1.733-2 .624-2.385 1.602-2.534 3.29-.5 1.559 1.879 3 1.934 3 .115 0-.762-1.196-2.169-2.658-3.127l-2.658-1.741 2.408-1.824c1.467-1.111 3.288-1.606 4.658-1.265 2.769.688 2.995-1.189.316-2.623-2.509-1.342-2.016-1.531-6.316 2.419m18.41.786c-.638.638-1.16 3.545-1.16 6.46s-.256 5.3-.57 5.3-2.532-1.35-4.93-3-4.897-3-5.553-3c-2.013 0 1.082 3.029 6.915 6.768 4.398 2.819 5.117 3.657 4 4.663-.749.674-6.2 5.154-12.112 9.954S140 71.592 140 72.179c0 .716.41.74 1.25.072 15.681-12.469 40.484-31.596 41.458-31.969 1.327-.509 1.838-3.282.604-3.282-.378 0-3.265 2.025-6.415 4.5s-6.041 4.5-6.424 4.5c-1.099 0 .582-7.416 1.86-8.206.855-.528.832-1.029-.091-1.952-1.462-1.462-3.228-.143-3.649 2.723-.147 1.005-.859 2.024-1.582 2.265-.979.326-1.157-.352-.696-2.657.677-3.385-.331-4.757-2.155-2.933m-19.691 8.81c-.95 1.538.351 2.53 1.635 1.246.718-.718.735-1.277.052-1.699-.56-.346-1.319-.142-1.687.453m21.198-.383c-1.309 1.309-.681 5.333.833 5.333q1.5 0 1.5-3c0-2.867-.9-3.767-2.333-2.333m2.859 9.29c-.325.527.75 1.652 2.39 2.499 4.034 2.087 12.434 7.721 13.222 8.87.701 1.021 2.862.055 2.862-1.279C187 62.322 170.691 52 169.545 52c-.235 0-.693.431-1.019.957M163 59.108c0 1.526-.45 3.052-1 3.392-1.329.822-1.261 1.761.284 3.873 1.212 1.658 1.434 1.637 4-.381 2.094-1.648 2.716-2.998 2.716-5.898 0-3.512-.198-3.761-3-3.761-2.612 0-3 .359-3 2.775m1.748 2.432c-.307 1.602-.073 2.404.633 2.171 1.388-.456 2.115-4.711.805-4.711-.524 0-1.171 1.143-1.438 2.54M65.944 87.789l-7.557.288-2.653 8.212c-1.458 4.516-3.807 12.692-5.219 18.169C47.69 125.42 46.02 142 47.74 142c.572 0 3.876-2.087 7.341-4.639 7.645-5.628 14.048-9.433 19.517-11.6 3.876-1.535 4.27-1.519 7.25.293 1.734 1.054 3.152 2.359 3.152 2.9s.678.723 1.508.405c.829-.319 2.683.191 4.119 1.133l2.612 1.711-2.792 1.832c-3.764 2.469-4.534 4.126-2.934 6.313 1.641 2.245 5.103 1.439 6.003-1.399.34-1.072 1.398-1.949 2.351-1.949s2.16-.399 2.683-.886c.522-.488 3.365-1.579 6.318-2.425 4.031-1.156 5.953-1.272 7.72-.467 1.62.738 2.751.751 3.632.041 1.594-1.285 12.609-1.425 14.915-.191.938.502 2.231 2.508 2.875 4.458.975 2.955.901 3.956-.443 6.008-1.306 1.993-2.444 2.462-5.973 2.462-3.251 0-4.518.445-4.978 1.75-.34.963-.879 2.313-1.2 3-.384.824.28 1.25 1.951 1.25 1.393 0 2.992.787 3.553 1.75.89 1.528 1.025 1.432 1.065-.75.025-1.375.482-3.175 1.015-4 .714-1.106.973-.44.985 2.531.013 3.534.376 4.167 2.951 5.139 2.384.9 3.041.832 3.499-.362.969-2.525-.56-18.453-2.541-26.475C132.852 125.617 132 120.292 132 118c0-5.371-1.871-4.883-3.589.936-.704 2.383-2.747 5.848-4.541 7.699-1.854 1.912-2.674 3.365-1.9 3.365.75 0 1.093.27.763.6-1.226 1.226-2.689-.698-1.823-2.396 5.057-9.917 7.786-18.022 4.698-13.954-1.65 2.174-2.608 2.235-2.608.167 0-2.315-2.316-1.168-2.493 1.235-.163 2.217-4.117 8.362-6.207 9.648-.715.44-1.3 1.397-1.3 2.127 0 .731-.759 1.946-1.687 2.701-1.478 1.201-1.606 1.154-1.032-.378.361-.963.203-1.75-.352-1.75-.669 0-.663-.421.016-1.25 5.013-6.117 8.055-11.318 8.055-13.772 0-.559-1.021-.54-2.565.047-3.308 1.257-3.435 1.241-3.435-.44 0-.778 2.226-3.049 4.947-5.046s5.859-5.107 6.974-6.911c3.402-5.504 6.834-8.628 9.48-8.628 2.852 0 5.506 3.161 10.649 12.686 1.838 3.402 4.378 6.74 5.645 7.419 1.268.678 2.305 1.659 2.305 2.181 0 .926-1.732.669-5.25-.78-1.047-.43-1.75-.275-1.75.387 0 .609.395 1.107.879 1.107.483 0 1.474 1.463 2.203 3.25s2.583 5.005 4.121 7.15 2.797 4.283 2.797 4.75c0 2.096-1.786.389-5.302-5.068-5.482-8.51-8.659-11.757-9.771-9.987-1.009 1.609-.588 3.286 2.701 10.763 2.173 4.938 2.34 7.142.544 7.142-.873 0-5.982-13.554-6.407-17l-.309-2.5-1.231 2.189c-1.492 2.655-.306 9.5 3.35 19.332 2.589 6.961 2.967 9.13 1.525 8.729-.495-.138-.94.2-.989.75s.694 1.011 1.65 1.025c1.016.015 1.683.734 1.604 1.728-.141 1.769 3.869 6.747 5.434 6.747.492 0 1.944-.91 3.227-2.022l2.331-2.022-2.193-2.728c-1.206-1.501-2.739-3.853-3.408-5.228-.668-1.375-1.526-2.73-1.906-3.01-.985-.727-2.203-5.99-1.387-5.99 1.051 0 3.598 2.795 3.369 3.696-.469 1.851 3.127 8.092 6.109 10.601 3.418 2.876 5.455 3.263 9.357 1.78 2.304-.876 4.491-5.077 2.643-5.077-1.609 0-9.941-9.444-9.941-11.268 0-1.231 2.187.428 6.897 5.233 5.608 5.72 7.477 7.035 10 7.035 3.383 0 4.19-1.52 1.295-2.439-2.966-.942-13.391-11.73-21.23-21.972-1.37-1.79-1.332-1.83.605-.623 1.137.708 3.038 2.693 4.224 4.41C162.344 130.971 175.32 143 177.88 143c.645 0-1.651-2.684-5.103-5.965l-6.277-5.965 6-.091c3.3-.05 9.825-.271 14.5-.491 10.486-.493 8.731-.507 19.85.159 8.764.524 9.317.443 8.825-1.294-.289-1.019-.803-3.428-1.142-5.353s-2.95-10.812-5.803-19.75L203.543 88l-33.522-.063a19770 19770 0 0 1-65.021-.25c-17.325-.103-34.9-.057-39.056.102m43.155 29.461c-1.377 2.242-1.375 2.243.759.345 2.292-2.038 2.588-2.595 1.383-2.595-.418 0-1.382 1.013-2.142 2.25m82.858 4.387c-2.726 2.55-4.957 5.025-4.957 5.5s3.202.863 7.117.863c6.907 0 7.097-.066 6.461-2.25-.361-1.237-.922-3.713-1.248-5.5s-1.002-3.25-1.504-3.25c-.501 0-3.142 2.087-5.869 4.637M101 126.338c-1.925 1.806-4.175 4.156-5 5.223-1.419 1.835-1.393 1.861.5.486 3.701-2.687 6.677-5.535 7.627-7.297 1.291-2.395.913-2.203-3.127 1.588m138.262 16.59c-.681 4.636-1.083 8.584-.892 8.775.704.704 2.795-11.349 2.468-14.226-.208-1.836-.812.252-1.576 5.451m-168.216-1.856c-1.9 2.16-4.038 3.928-4.75 3.928-.713 0-1.296.506-1.296 1.125 0 .73 1.113.902 3.174.49 3.817-.763 13.463-5.218 14.327-6.617.902-1.459-.064-1.236-4.165.962-3.593 1.926-5.336 1.9-5.336-.078 0-.55.45-.722 1-.382s1 .141 1-.441.702-1.059 1.559-1.059 1.281-.45.941-1c-1.11-1.795-2.941-.924-6.454 3.072m-8.046.987c0 .582.45.781 1 .441s1-.816 1-1.059-.45-.441-1-.441-1 .477-1 1.059m37.25.924c.963.614 1.75 1.994 1.75 3.067 0 2.12 3.375 2.77 4.546.875.428-.692 1.482-.308 2.952 1.073l2.287 2.149 2.073-2.225c1.14-1.224 1.874-2.547 1.63-2.942-.244-.394-2.766-1.025-5.606-1.401s-6.562-.916-8.272-1.199c-2.565-.423-2.803-.318-1.36.603m16.75 3.624c0 1.055.544 1.398 1.582 1 .87-.334 2.107-.614 2.75-.622 1.558-.021-1.461-1.95-3.082-1.97-.687-.008-1.25.708-1.25 1.592m53.481 4.643c-1.277 6.127-2.9 7.625-7.695 7.103-4.198-.456-4.235-.435-1.786 1.055l2.5 1.521-2.691.036c-1.48.019-2.984.509-3.343 1.089-.432.7-1.458.526-3.051-.518l-2.4-1.572.242 4.934c.222 4.506.386 4.806 1.889 3.457 1.312-1.177 1.735-1.212 2.083-.169.294.883.804.62 1.568-.807.833-1.556 1.802-1.987 3.668-1.631 2.035.39 2.535 1.07 2.535 3.452 0 3.301 2.256 3.473 2.85.217.192-1.054 1.258-2.903 2.369-4.108 1.555-1.688 2.11-3.929 2.414-9.75.417-8.006-.031-9.684-1.152-4.309m-74.231 2.466c1.513.229 2.75.893 2.75 1.475 0 .652-1.198.819-3.116.436-2.758-.552-3.056-.393-2.594 1.374.287 1.098.078 2.272-.465 2.607s-.717 1.688-.386 3.006c.653 2.601-2.032 7.755-3.552 6.816-.492-.304-.648-1.949-.347-3.655.347-1.972.075-3.403-.747-3.924-.958-.608-.84-.824.457-.836.963-.008 1.75-.417 1.75-.908 0-1.323-2.657-2.107-7.138-2.107-3.779 0-4.078.233-6.081 4.75-1.158 2.613-2.108 5.988-2.11 7.5-.003 1.623-.551 2.75-1.338 2.75-.755 0-1.333-1.083-1.333-2.5 0-2.981-1.967-3.344-2.71-.5-.288 1.1-1.194 2-2.014 2-.835 0-1.264-.589-.976-1.341.283-.737.134-1.957-.331-2.71-.699-1.13-1.177-1.07-2.737.341-2.506 2.268-3.583 2.161-2.942-.29.388-1.483.03-2-1.384-2-2.723 0-2.386 1.064 1.655 5.224 2.088 2.15 4.156 3.438 5 3.114.791-.303 2.226-.23 3.189.164 1.632.668 4.112 1.088 10.25 1.735 1.375.144 2.756.608 3.069 1.029.313.422 3.122.872 6.242 1 3.741.154 5.675.66 5.681 1.484.005.748 1.346 1.25 3.341 1.25 1.834 0 3.671.338 4.084.75s1.05.789 1.416.836c.367.048 1.468.439 2.448.869.979.431 3.164.506 4.855.168 2.426-.485 2.958-.31 2.521.83-.35.91.259 1.678 1.644 2.076 1.209.348 4.187 1.534 6.618 2.636s5.426 1.811 6.658 1.575c1.543-.294 2.085-.022 1.741.874-.31.807.58 1.559 2.341 1.978 1.563.372 3.516 1.219 4.341 1.882s3.707 2.409 6.404 3.881l4.905 2.677 7.095-3.631c8.268-4.23 9.791-5.401 7.031-5.401-1.08 0-3.644-.9-5.696-2-2.053-1.1-4.353-2-5.113-2s-1.941-.675-2.626-1.5-1.834-1.5-2.553-1.5c-2.307 0-8.361-4.442-8.405-6.167-.023-.916-.604-1.863-1.292-2.104-.916-.32-.783-.964.5-2.412.975-1.1 1.75-3.564 1.75-5.565 0-1.974-.787-4.974-1.75-6.665-1.767-3.105-3.25-4.011-3.25-1.986 0 .687-1.654.969-4.405.75-2.422-.193-4.195-.013-3.941.399s1.562.75 2.905.75 2.441.395 2.441.878c0 1.687-2.623 3.033-4.8 2.464-2.005-.524-2.152-.281-1.685 2.792l.511 3.366-1.352-3.5c-.743-1.925-2.152-3.656-3.131-3.846-1.093-.213-1.518.077-1.102.75.372.603.2 1.096-.382 1.096s-1.059-.498-1.059-1.107-.646-.859-1.435-.556c-.79.303-1.654.013-1.921-.643-.361-.887-.506-.873-.565.056-.083 1.309-5.24 1.756-6.438.558-.381-.381-1.581-.828-2.667-.994-3.001-.458-2.399 2.151 1.194 5.174l3.168 2.666-3.553-.667c-3.73-.7-6.292.997-3.263 2.159 1.291.495 1.364.807.34 1.44-.737.456-1.595.342-1.968-.261-.616-.997-.204-15.252.549-19.01.374-1.867-1.464-2.894-4.773-2.665-1.629.112-1.484.253.582.566m5.829 3.867c.048 1.165.285 1.402.604.605.289-.722.253-1.585-.079-1.917s-.568.258-.525 1.312m2.921.476c0 1.132.45 1.781 1 1.441s1-1.266 1-2.059-.45-1.441-1-1.441-1 .927-1 2.059m46-1.249c0 .537.713 1.249 1.584 1.584.973.373 1.431.15 1.187-.581-.498-1.495-2.771-2.318-2.771-1.003m-39.789 2.728c-1.081 1.225-.965 1.462.718 1.462 1.374 0 1.827-.474 1.433-1.5-.684-1.782-.544-1.784-2.151.038m4.789.84c0 1.122.848 1.598 2.75 1.543 1.567-.045 2.105-.318 1.25-.634-.825-.306-2.062-1-2.75-1.544-.892-.705-1.25-.524-1.25.635M81 161c1.97 1.273 4.287 1.273 3.5 0-.34-.55-1.604-.993-2.809-.985-1.781.013-1.91.197-.691.985m13.442 1.094c-.308.498.592.906 1.999.906 3.064 0 3.312-.57.56-1.289-1.099-.288-2.251-.115-2.559.383m135.023 1.538c-.348 1.577-.814 3.454-1.037 4.17s.005 1.048.507.738c1.106-.684 2.473-6.465 1.709-7.23-.301-.3-.831.745-1.179 2.322m6.983 3.59c-1.072 2.872-2.105 5.685-2.298 6.25-.192.565.752-.547 2.098-2.472 2.391-3.418 4.134-9 2.811-9-.365 0-1.54 2.35-2.611 5.222m-215.369-2.639c.048 1.165.285 1.402.604.605.289-.722.253-1.585-.079-1.917s-.568.258-.525 1.312m110.601-.854c-1.129 1.796.826 4.808 3.238 4.99 2.631.198 2.74-1.734.136-2.415-1.071-.28-2.094-1.251-2.274-2.157-.238-1.201-.536-1.314-1.1-.418m-2.013 3.938c-.367.366-.667 1.131-.667 1.7 0 .626.466.567 1.183-.15.651-.651.951-1.416.667-1.7s-.817-.217-1.183.15M81 169c0 .55.477 1 1.059 1s.781-.45.441-1-.816-1-1.059-1-.441.45-.441 1m30.2 1.2c-1.756 1.756-1.465 3.018.55 2.384.963-.303 4.157.567 7.099 1.933 6.084 2.824 6.151 2.84 6.151 1.483 0-.55-.869-1-1.932-1s-2.893-1.35-4.068-3c-2.24-3.146-5.664-3.936-7.8-1.8m118.33 3.361c-.958 2.508-1.482 4.821-1.164 5.138.592.592 2.135-2.864 3.234-7.243 1.01-4.022-.2-2.792-2.07 2.105M24 171.845c0 .465.97 1.702 2.155 2.75l2.155 1.905-1.77-2.75c-1.825-2.836-2.54-3.372-2.54-1.905M133 172c0 .55.45 1 1 1s1-.45 1-1-.45-1-1-1-1 .45-1 1m-2.829 2.532c.426 2.089 3.461 2.224 5.329.237.695-.739.427-.86-.877-.399-1.032.366-2.546.109-3.365-.571-1.243-1.031-1.422-.91-1.087.733M164.5 174c-.34.55.11 1 1 1s1.34-.45 1-1-.79-1-1-1-.66.45-1 1m-60.047 1.076c-.294.476.721 1.135 2.256 1.464s3.759.987 4.941 1.462c2.486.999 3.446.412 2.663-1.63-.337-.877-1.278-1.2-2.431-.834-1.035.328-1.882.229-1.883-.221-.001-1.111-4.877-1.323-5.546-.241m-10.64.607c.721.289 1.584.253 1.916-.079s-.258-.568-1.312-.525c-1.165.048-1.402.285-.604.604m31.543 2.55c-.306.495-.306 1.151.001 1.457.76.761 3.643-.42 3.643-1.492 0-1.143-2.933-1.115-3.644.035m-85.8 1.677c-.848 1.372.476 4.09 1.992 4.09.734 0 1.581-.399 1.882-.887.302-.488-.186-.825-1.083-.75-2.288.192-2.848-2.094-.652-2.663 1.567-.406 1.582-.483.114-.584-.93-.064-1.944.293-2.253.794m70.944.09c-.34.55-.141 1 .441 1s1.059-.45 1.059-1-.198-1-.441-1-.719.45-1.059 1m115.481 6.75c-5.733 6.502-8.319 10.25-7.072 10.25.575 0 1.822-1.238 2.773-2.75.95-1.512 3.477-4.887 5.616-7.5s3.66-4.75 3.38-4.75c-.279 0-2.393 2.137-4.697 4.75m-95.512-1.7c-.95 1.538.351 2.53 1.635 1.246.718-.718.735-1.277.052-1.699-.56-.346-1.319-.142-1.687.453m-97.395 4.361c-.691.833-.788 1.648-.236 1.989.514.318 1.169-.317 1.455-1.411.616-2.357.358-2.479-1.219-.578m101.739.272c.721.289 1.584.253 1.916-.079s-.258-.568-1.312-.525c-1.165.048-1.402.285-.604.604m11 1c.721.289 1.584.253 1.916-.079s-.258-.568-1.312-.525c-1.165.048-1.402.285-.604.604m66.919 3.567c-.824 1.238-3.62 4.387-6.214 7s-4.152 4.75-3.462 4.75c1.574 0 7.853-6.638 10.251-10.837 2.071-3.627 1.663-4.275-.575-.913m-58.999-.126c.679.684 1.486.991 1.793.683.308-.308-.247-.867-1.233-1.243-1.425-.542-1.54-.428-.56.56m-99.681 3.067c-.028.93.351 1.94.844 2.245 1.203.743 5.31 8.691 4.771 9.23-.235.235-3.518-1.931-7.297-4.813-6.295-4.802-6.97-4.564-1.87.659 3.412 3.494 6.839 5.487 9.473 5.51 1.39.012 4.439.89 6.777 1.951s4.25 1.736 4.25 1.5c0-.465-9.937-10.308-12.145-12.029-.745-.581-2.119-2.156-3.053-3.5-1.318-1.899-1.709-2.067-1.75-.753m88.948.868c0 .582.45.781 1 .441s1-.816 1-1.059-.45-.441-1-.441-1 .477-1 1.059m71.677 4.515c-2.083 1.415-5.675 3.43-7.982 4.478-2.914 1.323-3.543 1.911-2.059 1.926 1.858.019 14.364-7.434 14.364-8.561 0-.707-.412-.501-4.323 2.157m-169.712 5.551c1.696 1.031 3.86 1.865 4.809 1.853 1.396-.018 1.265-.377-.684-1.875-1.326-1.019-3.49-1.853-4.809-1.853-2.289 0-2.257.086.684 1.875m163.622 4.985c-1.475 1.16-4.348 2.985-6.385 4.054l-3.702 1.945 3.5-.577c2.133-.351 4.861-1.935 6.983-4.054 3.894-3.888 3.692-4.584-.396-1.368M76 213.441c0 .857.45 1.559 1 1.559s1-.423 1-.941-.45-1.219-1-1.559-1 .084-1 .941m-30 2.472c1.375 1.126 4.894 3.052 7.819 4.28 4.084 1.714 4.897 2.384 3.5 2.884-1 .358-3.844.042-6.319-.702s-4.95-1.348-5.5-1.342c-1.789.02 7.434 3.864 10.774 4.491 3.757.704 9.164-1.007 8.185-2.59-.364-.589-1.291-.829-2.06-.534-.77.296-1.399.134-1.399-.359 0-.494 2.587-1.189 5.75-1.546 3.162-.356 6.2-.77 6.75-.92 2.226-.606-14.281-3.683-19.899-3.71-3.321-.016-6.953-.472-8.07-1.014-1.485-.721-1.359-.435.469 1.062m46.696 1.459c.984 1.305 3.083 2.861 4.664 3.458 2.7 1.019 2.64.877-.993-2.331-4.513-3.986-6.224-4.511-3.671-1.127m88.176-.622c-1.243 1.586-1.208 1.621.378.378 1.666-1.307 2.195-2.128 1.372-2.128-.207 0-.995.787-1.75 1.75m9.461 3.056c-4.86 1.976-6.37 3.194-3.96 3.194 1.78 0 9.627-3.684 9.627-4.52 0-.767-1.223-.481-5.667 1.326M84.48 221.125c.709 2.428 2.054 3.853 6.958 7.375 1.532 1.1 3.748 2.773 4.924 3.717l2.138 1.716-2.275.034c-1.251.018-4.836-.867-7.965-1.967-7.769-2.731-8.959-2.545-5.549.864C86.746 236.9 91.25 239 95.869 239c5.537 0 7.5-.851 6.034-2.617-1.41-1.699.256-1.903 3.102-.38 1.073.574 2.109.622 2.425.111.632-1.024-4.294-4.989-9.43-7.59-1.925-.975-5.3-3.211-7.5-4.969-6.171-4.931-6.829-5.197-6.02-2.43M74 222.997c-2.277 1.737-2.36 2.049-.925 3.495 1.189 1.197 2.602 1.423 5.75.92 4.671-.747 5.09-1.359 2.175-3.18-1.186-.74-2-.838-2-.24 0 1.845-1.856 1.039-2.18-.948-.315-1.927-.356-1.928-2.82-.047m101.25 1.587c-3.365 1.472-4.168 2.432-2 2.394.688-.012 2.375-.902 3.75-1.978 2.917-2.282 2.659-2.344-1.75-.416M73 225c0 .55.675 1 1.5 1s1.5-.45 1.5-1-.675-1-1.5-1-1.5.45-1.5 1m80.172 4.577c-2.767 2.189-5.418 3.423-7.352 3.423-2.985 0-12.817 4.794-12.819 6.25-.001 1.115.303 1.01 6.499-2.25 3.137-1.65 6.384-3 7.215-3 2.273 0 8.733-3.886 10.1-6.075 1.52-2.435 1.53-2.439-3.643 1.652m10.335-2.588c-.35.566.051.734.941.393 1.732-.665 2.049-1.382.611-1.382-.518 0-1.216.445-1.552.989m18.153 3.005c-7.813 3.258-8.894 4.006-5.793 4.006 2.418 0 11.619-4.36 12.621-5.981.782-1.265 1.298-1.414-6.828 1.975m-13.16 3.627c-2.75 1.349-4.176 2.212-3.168 1.916 1.007-.295 2.42-.537 3.139-.537s2.37-.885 3.668-1.967c3.01-2.507 2.497-2.424-3.639.588m-58.5.181c0 .442 2.244 1.61 4.987 2.596 6.982 2.511 10.124 5.188 9.787 8.338-.151 1.405.289 2.751.976 2.992.882.31 1.25-.911 1.25-4.145 0-3.683-.344-4.591-1.75-4.623-.963-.022-4.225-1.371-7.25-2.999-5.532-2.978-8-3.644-8-2.159m46.5 1.754c-2.648 1.294-2.707 1.407-.5.969 1.375-.274 3.063-.504 3.75-.511.688-.008 1.25-.464 1.25-1.014 0-1.318-.889-1.208-4.5.556M106.875 239c-.069.55-.192 1.563-.274 2.25s-1.038 1.118-2.125.956-3.935-.508-6.329-.768c-2.394-.261-6.219-.905-8.5-1.432-5.811-1.341-6.705-1.17-2.782.533 1.85.804 4.186 1.461 5.191 1.461 2.633 0 3.538 2.092 1.537 3.556-2.662 1.946-.23 2.58 4.073 1.062 2.134-.753 6.713-1.698 10.177-2.1 5.893-.684 6.164-.825 4.211-2.193-1.148-.804-1.858-1.834-1.576-2.289.281-.454-.199-1.099-1.066-1.431-2.119-.814-2.391-.771-2.537.395m41.125.45c0 .798-.787 1.909-1.75 2.47s-1.525 1.033-1.25 1.051c.823.052 16.283 2.98 19.25 3.645 3.692.828 3.51-.455-.25-1.766-3.845-1.34-3.851-3.504-.011-4.347 1.643-.361 3.244-1.071 3.557-1.577.34-.551-.356-.576-1.739-.061-1.269.473-5.63 1.18-9.692 1.571-6.486.625-7.312.52-6.782-.862.332-.866.168-1.574-.364-1.574-.533 0-.969.653-.969 1.45m-31.386 7.113c-.318.83.044 1.437.858 1.437 1.996 0 2.794-1.684 1.105-2.332-.776-.298-1.66.105-1.963.895M133.5 246c-.34.55-.141 1 .441 1s1.059-.45 1.059-1-.198-1-.441-1-.719.45-1.059 1m5 0c-.34.55.084 1 .941 1s1.559-.45 1.559-1-.423-1-.941-1-1.219.45-1.559 1"/></svg>